<svg width="25" height="28" viewBox="0 0 25 28" fill="none" xmlns="http://www.w3.org/2000/svg">
<g clip-path="url(#clip0_22_997)">
<path d="M22.3958 5.83333H2.60417C2.39702 5.82518 2.19059 5.86488 1.99773 5.94994C1.80487 6.035 1.6297 6.16361 1.48313 6.32777C1.33656 6.49192 1.22173 6.68811 1.14578 6.90412C1.06984 7.12012 1.0344 7.35132 1.04167 7.58333V20.4167C1.0344 20.6487 1.06984 20.8799 1.14578 21.0959C1.22173 21.3119 1.33656 21.5081 1.48313 21.6722C1.6297 21.8364 1.80487 21.965 1.99773 22.0501C2.19059 22.1351 2.39702 22.1748 2.60417 22.1667H22.3958C22.603 22.1748 22.8094 22.1351 23.0023 22.0501C23.1951 21.965 23.3703 21.8364 23.5169 21.6722C23.6634 21.5081 23.7783 21.3119 23.8542 21.0959C23.9302 20.8799 23.9656 20.6487 23.9583 20.4167V7.58333C23.9656 7.35132 23.9302 7.12012 23.8542 6.90412C23.7783 6.68811 23.6634 6.49192 23.5169 6.32777C23.3703 6.16361 23.1951 6.035 23.0023 5.94994C22.8094 5.86488 22.603 5.82518 22.3958 5.83333ZM21.875 19.8333H3.12501V8.16667H21.875V19.8333Z" fill="#5B5B5B"/>
<path d="M6.77083 16.3333C7.92143 16.3333 8.85417 15.2887 8.85417 14C8.85417 12.7113 7.92143 11.6667 6.77083 11.6667C5.62024 11.6667 4.6875 12.7113 4.6875 14C4.6875 15.2887 5.62024 16.3333 6.77083 16.3333Z" fill="#5B5B5B"/>
<path d="M12.5 16.3333C13.6506 16.3333 14.5833 15.2887 14.5833 14C14.5833 12.7113 13.6506 11.6667 12.5 11.6667C11.3494 11.6667 10.4167 12.7113 10.4167 14C10.4167 15.2887 11.3494 16.3333 12.5 16.3333Z" fill="#5B5B5B"/>
<path d="M18.2292 16.3333C19.3798 16.3333 20.3125 15.2887 20.3125 14C20.3125 12.7113 19.3798 11.6667 18.2292 11.6667C17.0786 11.6667 16.1458 12.7113 16.1458 14C16.1458 15.2887 17.0786 16.3333 18.2292 16.3333Z" fill="#5B5B5B"/>
</g>
<defs>
<clipPath id="clip0_22_997">
<rect width="25" height="28" fill="white"/>
</clipPath>
</defs>
</svg>
